<svg xmlns="http://www.w3.org/2000/svg" viewBox="0 0 612.65 444.13"><defs><style>.cls-1{fill:#fff;stroke:#fff;stroke-miterlimit:10;}</style></defs><g id="Layer_2" data-name="Layer 2"><g id="Layer_1-2" data-name="Layer 1"><path class="cls-1" d="M108.49,250.57l-28.07,4q-1.1-9.09-1.45-18.4l28.18-7A196.39,196.39,0,0,0,108.49,250.57Z"/><path class="cls-1" d="M495.69,103.71,466.31,111A198.15,198.15,0,0,0,305.53,28.85c-100.16,0-183,74.21-196.47,170.64L79.7,206.76C90.06,91.14,187.2.5,305.53.5A226.51,226.51,0,0,1,495.69,103.71Z"/><path class="cls-1" d="M253.93,429.41a14.22,14.22,0,0,1-14.22,14.22,14,14,0,0,1-3.32-.39l0,0c-.68-.21-1.35-.42-2-.65h0A227.18,227.18,0,0,1,85.57,282.44l28.22-4A198.8,198.8,0,0,0,242.92,415.55c.79.27,1.58.53,2.38.78h0A14.22,14.22,0,0,1,253.93,429.41Z"/><path class="cls-1" d="M550.55,91.9h-1.12A61.17,61.17,0,0,0,538.87,93h0l-6.21,1.54h-.06l-36.88,9.14L466.31,111,109.06,199.49,79.7,206.76l-50.41,12.5-4,1h0c-.78.24-1.55.51-2.31.82a35.26,35.26,0,0,0,12.81,68.11h.75c1,0,2.09-.09,3.12-.2l2.15-.31.21,0,43.57-6.19,28.22-4L328.4,247.94l33.27-4.73h.06a5.32,5.32,0,0,1,.8-.12h.1a6.85,6.85,0,0,1,.79,0,8.75,8.75,0,0,1,8.66,8.22c0,.2,0,.4,0,.6s0,.4,0,.6V381.19c0,.66-.05,1.33-.05,2a38.83,38.83,0,0,0,56.47,34.57h0q3.92-2.53,7.72-5.22h0a226.46,226.46,0,0,0,96-185.28q0-7.61-.5-15.08a225.43,225.43,0,0,0-15-67.51q-3-7.8-6.66-15.32l30.18-7.48a33.12,33.12,0,1,1,14.48,64.6c.34,0,.69-.09,1-.11l-1.74.24h0a14.19,14.19,0,0,0,2.91,28.07,13.94,13.94,0,0,0,1.45-.07l.34,0,.52-.08A60.07,60.07,0,0,0,570,212a61.59,61.59,0,0,0-19.42-120Zm-68.66,44.41q3.87,7.47,7.1,15.31A196.32,196.32,0,0,1,500.24,189,198.65,198.65,0,0,1,419.58,389.6h0a10.71,10.71,0,0,1-4.89,3.34,10.54,10.54,0,0,1-3.43.56,10.83,10.83,0,0,1-10.83-10.83V250.5a36.05,36.05,0,0,0-33.13-35.95c-1-.08-1.94-.12-2.92-.12-.72,0-1.43,0-2.14.07h0l-6,.85L108.49,250.57l-28.07,4L71,255.89l-35.39,5-.65.09a5.37,5.37,0,0,1-.7,0,6.81,6.81,0,0,1-2-13.31h0a6.19,6.19,0,0,1,.77-.19l34.71-8.6L79,236.15l28.18-7,374.74-92.85"/></g></g></svg>